<?xml version="1.0" standalone="no"?><!DOCTYPE svg PUBLIC "-//W3C//DTD SVG 1.1//EN" "http://www.w3.org/Graphics/SVG/1.1/DTD/svg11.dtd"><svg height="400" node-id="1" sillyvg="true" template-height="400" template-width="600" version="1.1" viewBox="0 0 600 400" width="600" xmlns="http://www.w3.org/2000/svg" xmlns:xlink="http://www.w3.org/1999/xlink"><defs node-id="110"></defs><path d="M -600.00 -400.00 L 0.00 -400.00 L 0.00 0.00 L -600.00 0.00 Z" fill="#ffffff" fill-rule="evenodd" hidden="true" node-id="113" stroke="none" target-height="400" target-width="600" target-x="-600" target-y="-400" visibility="hidden"></path><g node-id="146"><path d="M 466.40 189.60 L 466.60 175.40 L 467.10 168.70 L 469.00 152.20 L 470.70 143.20 L 472.80 134.10 L 475.70 125.10 L 477.90 119.20 L 480.60 113.60 L 483.50 108.30 L 486.90 103.30 L 490.70 98.80 L 494.80 94.80 L 498.20 92.10 L 501.90 89.80 L 505.90 87.90 L 510.20 86.30 L 514.60 85.30 L 519.40 84.70 L 524.60 84.60 L 530.40 85.00 L 531.70 85.90 L 532.50 86.90 L 532.70 88.10 L 532.10 90.80 L 529.60 94.70 L 524.80 99.20 L 522.20 101.10 L 515.60 104.60 L 514.30 105.70 L 512.20 109.00 L 510.40 116.50 L 509.60 119.00 L 508.40 121.40 L 505.90 124.10 L 501.10 127.00 L 498.80 128.80 L 497.30 130.60 L 495.10 134.70 L 494.50 137.00 L 494.00 140.70 L 493.20 154.80 L 492.80 156.80 L 491.90 158.70 L 487.90 163.40 L 477.60 172.60 L 474.10 176.20 L 470.90 180.20 L 469.10 183.00 L 467.60 186.20 L 466.40 189.60 Z" fill="#f3f9ff" fill-rule="nonzero" group-id="1" hidden="true" id="Path" node-id="7" stroke="none" target-height="105.00001" target-width="66.30002" target-x="466.4" target-y="84.6" visibility="hidden"></path><path d="M 460.90 223.20 L 466.30 211.30 L 472.70 199.40 L 476.70 192.90 L 484.80 181.90 L 492.20 173.80 L 496.30 170.10 L 500.60 166.80 L 505.00 164.00 L 508.50 162.20 L 515.70 159.70 L 519.50 159.00 L 523.30 158.60 L 527.30 158.80 L 531.40 159.50 L 535.70 160.60 L 539.70 162.20 L 544.00 164.40 L 548.50 167.30 L 553.20 171.00 L 554.10 172.50 L 554.30 173.80 L 554.10 174.90 L 552.60 176.90 L 549.00 178.70 L 543.40 179.90 L 540.50 180.00 L 533.50 179.20 L 532.00 179.30 L 530.80 179.80 L 529.10 180.90 L 524.80 186.30 L 523.20 188.00 L 521.40 189.30 L 518.30 190.20 L 513.00 189.90 L 510.50 190.10 L 508.60 190.70 L 505.20 193.00 L 503.90 194.60 L 502.10 197.50 L 496.30 209.00 L 495.20 210.40 L 493.80 211.50 L 491.90 212.40 L 488.70 213.30 L 476.60 215.20 L 472.30 216.20 L 468.20 217.80 L 465.60 219.10 L 463.20 221.00 L 460.90 223.20 Z" fill="#e7f4fe" fill-rule="nonzero" group-id="1" hidden="true" id="Path" node-id="8" stroke="none" target-height="64.59999" target-width="93.399994" target-x="460.9" target-y="158.6" visibility="hidden"></path><path d="M 468.90 216.60 L 470.80 201.00 L 472.10 193.70 L 476.00 176.10 L 478.70 166.60 L 480.70 160.40 L 485.70 148.20 L 488.60 142.40 L 491.70 137.00 L 495.20 132.00 L 501.00 125.50 L 507.50 120.40 L 511.10 118.50 L 514.80 117.10 L 518.80 116.20 L 523.10 115.70 L 527.30 115.80 L 531.90 116.60 L 536.80 118.00 L 542.30 120.20 L 543.30 121.20 L 543.80 122.30 L 543.70 123.70 L 543.30 125.10 L 541.00 128.30 L 538.60 130.60 L 535.50 132.50 L 531.10 134.30 L 527.20 135.00 L 525.80 135.80 L 524.70 136.90 L 523.40 139.10 L 522.30 142.00 L 519.00 156.00 L 517.70 159.50 L 516.00 162.50 L 513.60 165.50 L 511.00 167.70 L 502.40 173.20 L 499.70 175.00 L 497.30 177.30 L 495.20 180.10 L 494.10 182.20 L 493.10 184.80 L 491.90 190.20 L 491.00 192.00 L 489.90 193.50 L 487.80 195.50 L 479.40 201.20 L 476.50 203.70 L 473.60 207.00 L 472.00 209.50 L 468.90 216.60 Z" fill="#dceefd" fill-rule="nonzero" group-id="1" hidden="true" id="Path" node-id="9" stroke="none" target-height="100.90001" target-width="74.899994" target-x="468.9" target-y="115.7" visibility="hidden"></path></g><g node-id="147"><path d="M 412.50 237.80 L 411.40 236.20 L 410.00 235.10 L 408.30 234.60 L 406.40 234.60 L 397.00 236.30 L 394.40 235.40 L 389.00 230.20 L 387.50 227.80 L 387.30 225.10 L 388.90 217.10 L 389.00 215.20 L 388.40 213.50 L 387.30 212.10 L 385.70 211.00 L 373.90 206.20 L 372.10 205.80 L 370.30 206.00 L 368.60 206.80 L 367.30 208.10 L 361.90 216.00 L 359.40 217.20 L 351.90 217.30 L 349.20 216.70 L 347.10 214.90 L 342.60 208.10 L 341.30 206.80 L 339.70 206.00 L 337.90 205.80 L 336.00 206.20 L 324.20 211.00 L 322.70 212.10 L 321.50 213.50 L 321.00 215.20 L 321.00 217.10 L 322.70 226.50 L 321.80 229.10 L 320.90 230.20 L 316.60 234.50 L 314.30 236.00 L 311.50 236.20 L 303.50 234.60 L 301.60 234.60 L 299.90 235.10 L 298.50 236.20 L 297.50 237.80 L 292.60 249.60 L 292.20 251.50 L 292.40 253.30 L 293.20 254.90 L 294.60 256.20 L 301.30 260.70 L 303.20 262.80 L 303.70 265.50 L 303.60 273.00 L 302.40 275.50 L 294.60 280.90 L 293.20 282.20 L 292.40 283.90 L 292.20 285.70 L 292.60 287.50 L 297.50 299.30 L 298.50 300.90 L 299.90 302.00 L 301.60 302.60 L 303.50 302.50 L 311.50 300.90 L 314.30 301.10 L 316.60 302.70 L 321.80 308.00 L 322.70 310.60 L 321.00 320.00 L 321.00 321.90 L 321.50 323.60 L 322.70 325.10 L 324.20 326.10 L 336.00 331.00 L 337.90 331.40 L 339.70 331.10 L 341.30 330.30 L 342.60 329.00 L 347.10 322.20 L 349.20 320.40 L 351.90 319.80 L 359.40 319.90 L 361.90 321.10 L 367.30 329.00 L 368.60 330.30 L 370.30 331.10 L 372.10 331.40 L 373.90 331.00 L 385.70 326.10 L 387.30 325.10 L 388.40 323.60 L 389.00 321.90 L 388.90 320.00 L 387.30 312.00 L 387.50 309.30 L 389.10 306.90 L 394.40 301.70 L 397.00 300.90 L 406.40 302.50 L 408.30 302.60 L 410.00 302.00 L 411.40 300.90 L 412.50 299.30 L 417.30 287.50 L 417.70 285.70 L 417.50 283.90 L 416.70 282.20 L 415.30 280.90 L 408.60 276.40 L 406.80 274.30 L 406.20 271.60 L 406.20 265.50 L 406.30 264.10 L 407.50 261.70 L 415.30 256.20 L 416.70 254.90 L 417.50 253.30 L 417.70 251.50 L 417.30 249.60 L 412.50 237.80 Z M 365.30 293.50 L 361.80 294.70 L 358.30 295.40 L 354.80 295.60 L 351.30 295.30 L 347.90 294.70 L 344.60 293.50 L 341.50 292.00 L 338.60 290.10 L 336.00 287.80 L 333.60 285.20 L 331.60 282.20 L 330.00 278.90 L 328.80 275.40 L 328.10 271.90 L 327.90 268.40 L 328.20 264.90 L 328.90 261.50 L 330.00 258.20 L 331.50 255.10 L 333.40 252.20 L 335.70 249.60 L 338.30 247.20 L 341.30 245.20 L 344.60 243.60 L 348.10 242.40 L 351.60 241.70 L 355.20 241.50 L 358.70 241.80 L 362.00 242.50 L 365.30 243.60 L 368.40 245.10 L 371.30 247.00 L 373.90 249.30 L 376.30 251.90 L 378.30 254.90 L 379.90 258.20 L 381.10 261.70 L 381.80 265.20 L 382.00 268.70 L 381.70 272.30 L 381.10 275.60 L 379.90 278.90 L 378.40 282.00 L 376.50 284.90 L 374.20 287.50 L 371.60 289.90 L 368.60 291.90 L 365.30 293.50 Z" fill="#f3f9ff" fill-rule="nonzero" group-id="2" id="Shape" node-id="11" stroke="none" target-height="125.59999" target-width="125.5" target-x="292.2" target-y="205.8"></path></g><g node-id="148"><g node-id="155"><path d="M 127.70 50.00 L 470.60 50.00 L 470.60 252.80 L 127.70 252.80 Z" fill="#f3f9ff" fill-rule="nonzero" group-id="3,10" id="Rectangle" node-id="14" stroke="none" target-height="202.8" target-width="342.90002" target-x="127.7" target-y="50"></path><path d="M 472.10 38.80 L 126.20 38.80 L 124.40 38.90 L 121.30 40.10 L 119.30 41.60 L 117.80 43.60 L 116.60 46.80 L 116.40 48.50 L 116.40 254.30 L 117.00 257.70 L 117.80 259.20 L 119.30 261.20 L 121.30 262.80 L 124.40 263.90 L 472.10 264.10 L 473.90 263.90 L 477.00 262.80 L 479.00 261.20 L 480.50 259.20 L 481.70 256.10 L 481.90 254.30 L 481.90 48.50 L 481.30 45.10 L 480.50 43.60 L 479.00 41.60 L 477.00 40.10 L 475.50 39.40 L 472.10 38.80 Z M 470.60 252.80 L 127.70 252.80 L 127.70 50.00 L 470.60 50.00 L 470.60 252.80 Z" fill="#224380" fill-rule="nonzero" group-id="3,10" id="Shape" node-id="15" stroke="none" target-height="225.3" target-width="365.5" target-x="116.4" target-y="38.8"></path></g><g node-id="156"><path d="M 449.10 241.70 L 260.90 241.70 L 259.60 241.50 L 257.70 240.40 L 256.50 238.40 L 256.40 237.20 L 256.40 70.80 L 256.50 69.50 L 257.70 67.60 L 259.60 66.40 L 260.90 66.30 L 449.10 66.30 L 450.30 66.40 L 452.20 67.60 L 453.40 69.50 L 453.60 70.80 L 453.60 237.20 L 453.40 238.40 L 452.20 240.40 L 450.30 241.50 L 449.10 241.70 Z" fill="#dae7ff" fill-rule="nonzero" group-id="3,11" id="Path" node-id="17" stroke="none" target-height="175.4" target-width="197.20001" target-x="256.4" target-y="66.3"></path><path d="M 449.10 237.20 L 260.90 237.20 L 259.60 237.00 L 257.70 235.90 L 256.50 233.90 L 256.40 232.70 L 256.40 66.30 L 257.00 64.00 L 258.60 62.40 L 259.60 61.90 L 449.10 61.80 L 450.30 61.90 L 452.20 63.10 L 453.40 65.00 L 453.60 66.30 L 453.60 232.70 L 453.40 233.90 L 452.20 235.90 L 450.30 237.00 L 449.10 237.20 Z" fill="#ffffff" fill-rule="nonzero" group-id="3,11" id="Path" node-id="18" stroke="none" target-height="175.4" target-width="197.20001" target-x="256.4" target-y="61.8"></path><path d="M 242.80 106.50 L 146.70 106.50 L 144.40 105.90 L 142.80 104.30 L 142.20 102.00 L 142.20 70.80 L 142.40 69.50 L 143.50 67.60 L 145.50 66.40 L 146.70 66.30 L 242.80 66.30 L 245.10 66.90 L 246.70 68.50 L 247.30 70.80 L 247.30 102.00 L 247.10 103.20 L 246.00 105.20 L 244.00 106.30 L 242.80 106.50 Z" fill="#dae7ff" fill-rule="nonzero" group-id="3,11" id="Path" node-id="19" stroke="none" target-height="40.199997" target-width="105.100006" target-x="142.2" target-y="66.3"></path><path d="M 242.80 102.00 L 146.70 102.00 L 144.40 101.40 L 142.80 99.80 L 142.20 97.50 L 142.20 66.30 L 142.40 65.00 L 143.50 63.10 L 145.50 61.90 L 146.70 61.80 L 242.80 61.80 L 245.10 62.40 L 246.70 64.00 L 247.30 66.30 L 247.30 97.50 L 247.10 98.70 L 246.00 100.70 L 244.00 101.80 L 242.80 102.00 Z" fill="#ffffff" fill-rule="nonzero" group-id="3,11" id="Path" node-id="20" stroke="none" target-height="40.2" target-width="105.100006" target-x="142.2" target-y="61.8"></path><path d="M 242.80 168.00 L 146.70 168.00 L 144.40 167.40 L 142.80 165.80 L 142.20 163.50 L 142.20 132.30 L 142.40 131.10 L 143.50 129.10 L 145.50 127.90 L 146.70 127.80 L 242.80 127.80 L 245.10 128.40 L 246.70 130.00 L 247.30 132.30 L 247.30 163.50 L 247.10 164.80 L 246.00 166.70 L 244.00 167.90 L 242.80 168.00 Z" fill="#dae7ff" fill-rule="nonzero" group-id="3,11" id="Path" node-id="21" stroke="none" target-height="40.199997" target-width="105.100006" target-x="142.2" target-y="127.8"></path><path d="M 242.80 163.50 L 146.70 163.50 L 144.40 162.90 L 142.80 161.30 L 142.20 159.00 L 142.20 127.80 L 142.40 126.50 L 143.50 124.60 L 145.50 123.40 L 146.70 123.30 L 242.80 123.30 L 245.10 123.90 L 246.70 125.50 L 247.30 127.80 L 247.30 159.00 L 247.10 160.20 L 246.00 162.20 L 244.00 163.40 L 242.80 163.50 Z" fill="#ffffff" fill-rule="nonzero" group-id="3,11" id="Path" node-id="22" stroke="none" target-height="40.199997" target-width="105.100006" target-x="142.2" target-y="123.3"></path><path d="M 367.70 84.50 L 274.60 84.50 L 273.30 84.00 L 272.80 82.70 L 272.80 75.10 L 273.00 74.40 L 273.90 73.40 L 367.70 73.30 L 369.00 73.80 L 369.50 75.10 L 369.50 82.70 L 369.00 84.00 L 367.70 84.50 Z" fill="#1b90fb" fill-rule="nonzero" group-id="3,11" id="Path" node-id="23" stroke="none" target-height="11.199997" target-width="96.70001" target-x="272.8" target-y="73.3"></path><path d="M 312.30 142.30 L 273.90 142.20 L 273.00 141.20 L 272.80 140.50 L 272.80 132.90 L 273.00 132.20 L 273.90 131.20 L 313.00 131.20 L 314.00 132.20 L 314.10 132.90 L 314.10 140.50 L 313.60 141.80 L 312.30 142.30 Z" fill="#7266d5" fill-rule="nonzero" group-id="3,11" id="Path" node-id="24" stroke="none" target-height="11.100006" target-width="41.30002" target-x="272.8" target-y="131.2"></path><g node-id="159"><path d="M 435.50 95.10 L 274.40 95.10 L 273.30 94.60 L 272.80 93.40 L 273.30 92.30 L 274.40 91.80 L 435.50 91.80 L 436.60 92.30 L 437.10 93.40 L 436.60 94.60 L 435.50 95.10 Z" fill="#dceefd" fill-rule="nonzero" group-id="3,11,14" node-id="138" stroke="none" target-height="3.2999954" target-width="164.30002" target-x="272.8" target-y="91.8"></path><path d="M 435.50 104.60 L 274.40 104.60 L 273.30 104.20 L 272.80 103.00 L 273.30 101.80 L 274.40 101.30 L 435.50 101.30 L 436.60 101.80 L 437.10 103.00 L 436.60 104.20 L 435.50 104.60 Z" fill="#dceefd" fill-rule="nonzero" group-id="3,11,14" node-id="140" stroke="none" target-height="3.2999954" target-width="164.30002" target-x="272.8" target-y="101.3"></path><path d="M 435.50 114.20 L 274.40 114.20 L 273.30 113.70 L 272.80 112.60 L 273.30 111.40 L 274.40 110.90 L 435.50 110.90 L 436.60 111.40 L 437.10 112.60 L 436.60 113.70 L 435.50 114.20 Z" fill="#dceefd" fill-rule="nonzero" group-id="3,11,14" node-id="142" stroke="none" target-height="3.2999954" target-width="164.30002" target-x="272.8" target-y="110.9"></path><path d="M 335.40 123.80 L 274.40 123.80 L 273.30 123.30 L 272.80 122.10 L 273.30 121.00 L 274.40 120.50 L 335.40 120.50 L 336.50 121.00 L 337.00 122.10 L 336.50 123.30 L 335.40 123.80 Z" fill="#dceefd" fill-rule="nonzero" group-id="3,11,14" node-id="144" stroke="none" target-height="3.300003" target-width="64.20001" target-x="272.8" target-y="120.5"></path></g></g></g><g node-id="149"><path d="M 81.10 168.80 L 100.10 187.80 L 100.10 201.30 L 81.10 182.30 L 62.10 201.30 L 62.10 187.80 Z" fill="#f3f9ff" fill-rule="nonzero" group-id="4" id="Path" node-id="31" stroke="none" target-height="32.5" target-width="38" target-x="62.1" target-y="168.8"></path><path d="M 81.10 145.00 L 100.10 164.00 L 100.10 177.50 L 81.10 158.50 L 62.10 177.50 L 62.10 164.00 Z" fill="#e7f4fe" fill-rule="nonzero" group-id="4" id="Path" node-id="32" stroke="none" target-height="32.5" target-width="38" target-x="62.1" target-y="145"></path><path d="M 81.10 121.20 L 100.10 140.20 L 100.10 153.70 L 81.10 134.70 L 62.10 153.70 L 62.10 140.20 Z" fill="#dceefd" fill-rule="nonzero" group-id="4" id="Path" node-id="33" stroke="none" target-height="32.5" target-width="38" target-x="62.1" target-y="121.2"></path><path d="M 81.10 97.40 L 100.10 116.40 L 100.10 129.90 L 81.10 110.90 L 62.10 129.90 L 62.10 116.40 Z" fill="#d0e7fe" fill-rule="nonzero" group-id="4" id="Path" node-id="34" stroke="none" target-height="32.499992" target-width="38" target-x="62.1" target-y="97.4"></path></g><g node-id="150"><path d="M 147.00 38.80 L 149.50 38.80 L 149.50 195.60 L 147.00 195.60 Z" fill="#0d1f42" fill-rule="nonzero" group-id="5" id="Rectangle" node-id="36" stroke="none" target-height="156.8" target-width="2.5" target-x="147" target-y="38.8"></path><g node-id="157"><path d="M 224.30 137.60 L 213.50 137.60 L 212.90 137.30 L 212.70 136.70 L 212.90 136.10 L 213.50 135.80 L 224.30 135.80 L 226.50 136.70 L 224.30 137.60 Z" fill="#224380" fill-rule="nonzero" group-id="5,12" id="Path" node-id="38" stroke="none" target-height="1.800003" target-width="13.800003" target-x="212.7" target-y="135.8"></path><path d="M 171.70 222.10 L 172.40 225.40 L 168.00 226.00 L 166.70 222.90 Z" fill="#f1b282" fill-rule="nonzero" group-id="5,12" id="Path" node-id="39" stroke="none" target-height="3.899994" target-width="5.699997" target-x="166.7" target-y="222.1"></path><path d="M 172.50 225.00 L 167.00 226.20 L 165.40 227.10 L 161.10 230.30 L 160.80 231.10 L 161.10 232.00 L 161.80 232.50 L 164.50 232.70 L 168.60 232.40 L 170.70 231.90 L 173.30 230.70 L 174.00 229.30 L 173.90 227.50 L 173.20 225.70 L 172.50 225.00 Z" fill="#102b5e" fill-rule="nonzero" group-id="5,12" id="Path" node-id="40" stroke="none" target-height="7.699997" target-width="13.199997" target-x="160.8" target-y="225"></path><path d="M 178.90 221.00 L 177.00 223.90 L 181.00 226.00 L 183.40 223.50 Z" fill="#f1b282" fill-rule="nonzero" group-id="5,12" id="Path" node-id="41" stroke="none" target-height="5" target-width="6.399994" target-x="177" target-y="221"></path><path d="M 160.60 192.60 L 160.30 195.50 L 161.50 208.70 L 162.70 216.00 L 164.60 223.90 L 165.10 224.60 L 167.20 224.90 L 169.70 224.30 L 172.70 222.90 L 174.70 204.90 L 175.00 197.20 L 174.60 192.60 L 173.20 191.30 L 169.90 190.60 L 165.20 191.00 L 163.10 191.40 L 160.60 192.60 Z" fill="#0b224e" fill-rule="nonzero" group-id="5,12" id="Path" node-id="42" stroke="none" target-height="34.299988" target-width="14.699997" target-x="160.3" target-y="190.6"></path><path d="M 207.00 194.20 L 205.50 190.80 L 204.20 189.10 L 201.70 186.80 L 198.70 184.60 L 195.40 182.60 L 188.60 179.60 L 185.60 178.60 L 181.00 177.60 L 176.40 178.10 L 170.00 179.70 L 157.80 183.70 L 155.10 184.90 L 154.50 187.10 L 154.60 188.80 L 155.80 191.90 L 158.30 194.00 L 159.90 194.70 L 165.00 195.30 L 173.20 194.80 L 182.20 193.30 L 193.50 197.90 L 184.30 209.20 L 181.90 212.70 L 179.00 218.20 L 178.20 221.50 L 178.70 222.30 L 180.90 223.80 L 183.50 224.60 L 184.30 224.40 L 186.50 222.60 L 191.10 218.40 L 196.70 212.50 L 202.10 205.90 L 206.00 199.60 L 206.70 197.50 L 207.00 194.20 Z" fill="#102b5e" fill-rule="nonzero" group-id="5,12" id="Path" node-id="43" stroke="none" target-height="47" target-width="52.5" target-x="154.5" target-y="177.6"></path><path d="M 177.00 134.40 L 174.00 143.10 L 174.80 143.80 L 177.60 144.90 L 182.20 145.60 L 182.80 145.40 L 183.30 143.90 L 183.90 138.00 L 187.80 138.60 L 189.90 138.20 L 191.10 136.30 L 191.60 134.70 L 193.40 132.70 L 192.20 127.10 L 190.90 124.60 L 186.80 123.30 L 182.40 123.10 L 180.50 123.60 L 179.50 124.30 L 178.70 125.20 L 178.20 126.60 L 177.00 134.40 Z" fill="#f1b282" fill-rule="nonzero" group-id="5,12" id="Path" node-id="44" stroke="none" target-height="22.500008" target-width="19.399994" target-x="174" target-y="123.1"></path><path d="M 178.00 136.10 L 181.40 135.80 L 183.10 135.30 L 185.20 134.00 L 185.80 132.40 L 184.10 126.70 L 184.20 126.10 L 184.60 125.70 L 189.20 125.80 L 190.60 125.50 L 191.60 124.90 L 192.30 123.90 L 192.50 122.10 L 192.30 121.10 L 191.00 118.90 L 189.30 117.60 L 187.10 116.50 L 184.70 115.90 L 182.10 115.80 L 180.30 116.10 L 177.00 117.70 L 175.50 119.00 L 174.20 120.80 L 172.90 123.20 L 172.00 126.10 L 171.70 128.50 L 171.80 130.40 L 172.40 132.20 L 174.20 134.70 L 175.50 135.50 L 178.00 136.10 Z" fill="#102b5e" fill-rule="nonzero" group-id="5,12" id="Path" node-id="45" stroke="none" target-height="20.300003" target-width="20.800003" target-x="171.7" target-y="115.8"></path><path d="M 210.00 144.00 L 214.10 139.80 L 216.30 135.30 L 216.90 134.70 L 218.10 134.50 L 219.80 134.80 L 221.60 135.90 L 222.10 136.60 L 222.40 138.90 L 221.90 140.70 L 221.30 141.40 L 218.20 142.80 L 212.60 147.80 L 210.00 144.00 Z" fill="#f1b282" fill-rule="nonzero" group-id="5,12" id="Path" node-id="46" stroke="none" target-height="13.300003" target-width="12.399994" target-x="210" target-y="134.5"></path><path d="M 215.30 144.70 L 214.80 143.40 L 214.00 142.50 L 212.90 142.00 L 211.70 142.00 L 210.40 142.30 L 197.30 150.20 L 192.80 145.90 L 189.60 143.80 L 185.80 141.90 L 183.10 141.00 L 176.90 140.20 L 173.40 140.40 L 170.00 141.20 L 166.50 142.40 L 163.20 144.00 L 160.10 145.90 L 154.60 150.60 L 150.50 155.60 L 149.10 158.30 L 148.20 160.80 L 147.90 163.10 L 148.50 166.70 L 149.80 168.60 L 151.70 169.40 L 155.00 169.10 L 153.90 174.40 L 153.20 180.50 L 153.70 186.40 L 154.10 187.20 L 154.90 187.70 L 158.20 187.90 L 170.60 185.00 L 179.20 183.90 L 182.80 182.60 L 184.00 181.00 L 184.00 171.20 L 184.30 168.60 L 185.70 164.00 L 186.90 162.40 L 189.20 161.10 L 190.70 161.00 L 192.40 161.20 L 196.70 163.30 L 198.10 163.50 L 199.90 163.10 L 202.20 161.90 L 206.90 158.10 L 211.30 153.10 L 214.40 148.30 L 215.20 146.10 L 215.30 144.70 Z" fill="#1b90fb" fill-rule="nonzero" group-id="5,12" id="Path" node-id="47" stroke="none" target-height="47.699997" target-width="67.40001" target-x="147.9" target-y="140.2"></path><path d="M 174.40 117.20 L 174.00 115.10 L 172.20 112.70 L 170.50 111.50 L 167.30 110.60 L 165.00 110.50 L 161.10 110.80 L 158.30 111.50 L 156.30 112.50 L 154.50 113.90 L 153.20 115.60 L 152.40 117.50 L 151.80 120.70 L 151.70 124.30 L 152.80 135.20 L 153.00 138.10 L 152.60 141.40 L 151.20 145.30 L 148.80 148.30 L 147.90 150.30 L 148.70 151.20 L 151.70 151.50 L 154.40 151.10 L 157.20 150.20 L 162.00 147.70 L 165.10 144.60 L 166.30 142.70 L 167.20 140.50 L 168.80 129.00 L 169.70 123.90 L 170.40 121.70 L 171.20 120.60 L 171.90 120.20 L 174.10 120.40 L 174.60 119.20 L 174.40 117.20 Z" fill="#102b5e" fill-rule="nonzero" group-id="5,12" id="Path" node-id="48" stroke="none" target-height="41" target-width="26.700012" target-x="147.9" target-y="110.5"></path><path d="M 177.00 115.50 L 177.40 116.10 L 177.30 117.20 L 176.10 120.10 L 174.00 122.60 L 172.90 123.20 L 171.90 123.20 L 171.10 122.30 L 171.20 121.40 L 172.50 118.50 L 174.80 116.10 L 176.00 115.50 L 177.00 115.50 Z" fill="#1b90fb" fill-rule="nonzero" group-id="5,12" id="Path" node-id="49" stroke="none" target-height="7.699997" target-width="6.299988" target-x="171.1" target-y="115.5"></path><path d="M 155.00 169.20 L 158.40 160.00 L 161.30 155.30 L 162.90 153.80 L 156.40 173.00 L 153.30 183.80 L 153.90 173.90 L 155.00 169.20 Z" fill="#1277d7" fill-rule="nonzero" group-id="5,12" id="Path" node-id="50" stroke="none" target-height="30" target-width="9.599991" target-x="153.3" target-y="153.8"></path><path d="M 193.40 198.10 L 196.10 199.00 L 188.80 205.40 L 185.40 207.80 L 191.30 199.90 L 193.40 198.10 Z" fill="#0b224e" fill-rule="nonzero" group-id="5,12" id="Path" node-id="51" stroke="none" target-height="9.699997" target-width="10.700012" target-x="185.4" target-y="198.1"></path><path d="M 177.00 223.10 L 183.80 227.10 L 186.80 231.60 L 188.20 233.00 L 188.30 234.40 L 187.30 235.30 L 185.40 235.20 L 180.90 233.70 L 176.10 231.30 L 174.30 230.00 L 173.50 228.90 L 173.20 228.00 L 173.30 227.10 L 175.00 224.30 L 175.80 223.50 L 177.00 223.10 Z" fill="#102b5e" fill-rule="nonzero" group-id="5,12" id="Path" node-id="52" stroke="none" target-height="12.199997" target-width="15.100006" target-x="173.2" target-y="223.1"></path></g><path d="M 142.90 201.10 L 209.20 201.10 L 210.50 200.80 L 211.50 200.10 L 212.20 199.10 L 212.50 197.80 L 212.20 196.30 L 211.50 195.20 L 210.50 194.60 L 209.20 194.30 L 142.90 194.30 L 141.60 194.60 L 140.60 195.20 L 139.90 196.30 L 139.60 197.50 L 139.90 199.10 L 140.60 200.10 L 141.60 200.80 L 142.90 201.10 Z" fill="#0d1f42" fill-rule="nonzero" group-id="5" id="Path" node-id="53" stroke="none" target-height="6.800003" target-width="72.899994" target-x="139.6" target-y="194.3"></path><path d="M 204.10 38.80 L 206.70 38.80 L 206.70 195.60 L 204.10 195.60 Z" fill="#0d1f42" fill-rule="nonzero" group-id="5" id="Rectangle" node-id="54" stroke="none" target-height="156.8" target-width="2.5999908" target-x="204.1" target-y="38.8"></path></g><g node-id="151"><path d="M 423.70 135.90 L 465.50 135.90 L 465.50 139.50 L 423.70 139.50 Z" fill="#183168" fill-rule="nonzero" group-id="6" id="Rectangle" node-id="56" stroke="none" target-height="3.600006" target-width="41.799988" target-x="423.7" target-y="135.9"></path><path d="M 423.50 162.80 L 464.50 162.80 L 464.50 166.40 L 423.50 166.40 Z" fill="#183168" fill-rule="nonzero" group-id="6" id="Rectangle" node-id="57" stroke="none" target-height="3.5999908" target-width="41" target-x="423.5" target-y="162.8"></path><path d="M 423.70 197.50 L 465.80 197.50 L 465.80 201.10 L 423.70 201.10 Z" fill="#183168" fill-rule="nonzero" group-id="6" id="Rectangle" node-id="58" stroke="none" target-height="3.600006" target-width="42.099976" target-x="423.7" target-y="197.5"></path><path d="M 429.50 229.10 L 465.20 229.10 L 465.20 232.70 L 429.50 232.70 Z" fill="#183168" fill-rule="nonzero" group-id="6" id="Rectangle" node-id="59" stroke="none" target-height="3.5999908" target-width="35.700012" target-x="429.5" target-y="229.1"></path><path d="M 423.90 328.10 L 465.20 328.10 L 465.20 331.70 L 423.90 331.70 Z" fill="#183168" fill-rule="nonzero" group-id="6" id="Rectangle" node-id="60" stroke="none" target-height="3.600006" target-width="41.30002" target-x="423.9" target-y="328.1"></path><path d="M 423.90 360.50 L 465.20 360.50 L 465.20 364.10 L 423.90 364.10 Z" fill="#183168" fill-rule="nonzero" group-id="6" id="Rectangle" node-id="61" stroke="none" target-height="3.600006" target-width="41.30002" target-x="423.9" target-y="360.5"></path><path d="M 424.10 260.20 L 465.50 260.20 L 465.50 263.80 L 424.10 263.80 Z" fill="#183168" fill-rule="nonzero" group-id="6" id="Rectangle" node-id="62" stroke="none" target-height="3.5999756" target-width="41.399994" target-x="424.1" target-y="260.2"></path><path d="M 463.80 122.10 L 467.40 122.10 L 467.40 379.00 L 463.80 379.00 Z" fill="#183168" fill-rule="nonzero" group-id="6" id="Rectangle" node-id="63" stroke="none" target-height="256.9" target-width="3.600006" target-x="463.8" target-y="122.1"></path><path d="M 423.00 122.10 L 426.60 122.10 L 426.60 379.00 L 423.00 379.00 Z" fill="#183168" fill-rule="nonzero" group-id="6" id="Rectangle" node-id="64" stroke="none" target-height="256.9" target-width="3.600006" target-x="423" target-y="122.1"></path><g node-id="158"><path d="M 389.20 155.60 L 390.30 153.00 L 389.70 151.20 L 379.40 145.70 L 378.60 144.80 L 378.70 143.60 L 380.70 139.70 L 381.60 138.90 L 382.80 139.00 L 386.40 140.90 L 386.80 140.10 L 383.20 138.30 L 382.30 138.00 L 380.50 138.60 L 378.00 143.30 L 377.80 145.10 L 379.00 146.50 L 389.10 151.80 L 389.50 152.90 L 388.40 155.20 L 389.20 155.60 Z" fill="#4d78cc" fill-rule="nonzero" group-id="6,13" id="Path" node-id="66" stroke="none" target-height="17.600006" target-width="12.5" target-x="377.8" target-y="138"></path><path d="M 384.40 143.90 L 401.60 152.50 L 403.10 152.00 L 405.40 148.00 L 405.50 146.30 L 404.40 145.00 L 387.20 136.40 L 385.60 136.90 L 383.40 140.90 L 383.30 142.60 L 384.40 143.90 Z" fill="#7266d5" fill-rule="nonzero" group-id="6,13" id="Path" node-id="67" stroke="none" target-height="16.100006" target-width="22.200012" target-x="383.3" target-y="136.4"></path><path d="M 387.40 163.30 L 391.30 155.30 L 390.80 153.70 L 389.90 153.10 L 388.20 152.90 L 386.90 154.00 L 383.00 162.00 L 383.50 163.60 L 384.40 164.30 L 386.10 164.40 L 387.40 163.30 Z" fill="#224380" fill-rule="nonzero" group-id="6,13" id="Path" node-id="68" stroke="none" target-height="11.5" target-width="8.299988" target-x="383" target-y="152.9"></path></g><path d="M 425.60 295.80 L 466.90 295.80 L 466.90 299.40 L 425.60 299.40 Z" fill="#183168" fill-rule="nonzero" group-id="6" id="Rectangle" node-id="69" stroke="none" target-height="3.600006" target-width="41.299988" target-x="425.6" target-y="295.8"></path><path d="M 440.10 287.20 L 441.70 292.00 L 443.60 293.00 L 444.40 293.00 L 446.10 292.10 L 446.80 290.70 L 446.10 286.70 L 445.10 286.30 L 440.10 287.20 Z" fill="#f1b282" fill-rule="nonzero" group-id="6" id="Path" node-id="70" stroke="none" target-height="6.700012" target-width="6.6999817" target-x="440.1" target-y="286.3"></path><path d="M 447.40 287.50 L 438.90 287.50 L 428.80 248.10 L 427.70 242.60 L 426.00 226.00 L 425.70 217.30 L 425.80 210.20 L 426.20 208.40 L 426.90 207.00 L 427.90 206.10 L 430.50 205.00 L 432.20 204.90 L 434.70 205.20 L 437.20 206.00 L 439.60 207.20 L 441.50 208.80 L 443.30 211.20 L 443.60 212.50 L 444.30 219.70 L 444.40 226.20 L 443.50 237.40 L 441.70 250.10 L 442.80 253.40 L 444.70 262.60 L 446.50 277.20 L 447.40 287.50 Z" fill="#102b5e" fill-rule="nonzero" group-id="6" id="Path" node-id="71" stroke="none" target-height="82.600006" target-width="21.699982" target-x="425.7" target-y="204.9"></path><path d="M 424.20 148.90 L 423.60 150.50 L 423.40 153.20 L 422.10 156.90 L 423.20 159.10 L 423.30 162.00 L 423.60 163.00 L 424.10 163.50 L 426.30 164.30 L 426.90 165.10 L 425.00 170.60 L 436.30 170.80 L 436.20 163.30 L 437.30 154.60 L 437.10 150.60 L 436.60 149.10 L 435.90 148.40 L 434.90 148.00 L 429.60 147.30 L 426.10 147.70 L 424.80 148.20 L 424.20 148.90 Z" fill="#f1b282" fill-rule="nonzero" group-id="6" id="Path" node-id="72" stroke="none" target-height="23.5" target-width="15.199982" target-x="422.1" target-y="147.3"></path><path d="M 430.30 143.90 L 434.80 144.30 L 437.80 145.00 L 439.50 145.80 L 440.80 146.80 L 441.80 148.10 L 442.80 151.50 L 442.70 156.20 L 442.10 158.60 L 440.10 162.60 L 439.20 163.60 L 437.30 164.30 L 431.50 163.70 L 429.70 162.80 L 429.00 161.20 L 428.60 155.20 L 428.20 154.30 L 423.90 151.50 L 422.90 148.80 L 422.90 146.40 L 423.30 144.20 L 423.90 143.10 L 424.70 142.60 L 425.70 142.50 L 430.30 143.90 Z" fill="#0b224e" fill-rule="nonzero" group-id="6" id="Path" node-id="73" stroke="none" target-height="21.800003" target-width="19.899994" target-x="422.9" target-y="142.5"></path><path d="M 451.70 141.80 L 453.00 136.30 L 453.00 135.00 L 452.10 133.40 L 449.70 132.20 L 448.00 132.00 L 444.70 132.60 L 443.30 133.70 L 442.90 136.10 L 443.60 138.10 L 446.90 141.50 L 447.90 143.00 L 448.90 143.30 L 450.60 143.00 L 451.70 141.80 Z" fill="#f1b282" fill-rule="nonzero" group-id="6" id="Path" node-id="74" stroke="none" target-height="11.300003" target-width="10.100006" target-x="442.9" target-y="132"></path><path d="M 387.50 167.50 L 382.30 165.10 L 381.30 164.30 L 380.60 162.70 L 381.10 160.10 L 382.10 158.60 L 384.50 156.30 L 386.30 155.90 L 388.30 157.10 L 389.60 158.90 L 390.20 163.50 L 390.70 165.30 L 390.40 166.30 L 389.10 167.40 L 387.50 167.50 Z" fill="#f1b282" fill-rule="nonzero" group-id="6" id="Path" node-id="75" stroke="none" target-height="11.600006" target-width="10.100006" target-x="380.6" target-y="155.9"></path><path d="M 417.80 279.80 L 420.20 284.30 L 422.20 285.00 L 423.00 284.90 L 424.50 283.70 L 425.00 282.20 L 423.60 278.30 L 422.60 278.10 L 417.80 279.80 Z" fill="#f1b282" fill-rule="nonzero" group-id="6" id="Path" node-id="76" stroke="none" target-height="6.899994" target-width="7.200012" target-x="417.8" target-y="278.1"></path><path d="M 418.00 210.60 L 405.80 229.00 L 402.70 234.60 L 401.30 238.30 L 401.40 240.60 L 402.20 244.30 L 404.90 252.80 L 408.70 262.20 L 416.50 279.90 L 424.80 278.10 L 420.30 260.00 L 417.60 251.30 L 414.90 244.50 L 418.30 240.50 L 428.90 229.60 L 432.80 224.50 L 434.40 221.70 L 435.60 218.80 L 436.30 215.60 L 436.60 212.00 L 435.80 210.80 L 432.70 209.90 L 424.60 209.90 L 418.00 210.60 Z" fill="#0b224e" fill-rule="nonzero" group-id="6" id="Path" node-id="77" stroke="none" target-height="70" target-width="35.30002" target-x="401.3" target-y="209.9"></path><path d="M 435.20 168.90 L 425.60 168.90 L 421.00 169.60 L 402.60 176.90 L 390.90 163.60 L 385.10 167.20 L 389.10 173.60 L 393.20 179.10 L 395.50 181.80 L 399.30 185.10 L 401.90 186.30 L 406.50 186.60 L 411.70 186.10 L 416.90 184.70 L 416.20 190.10 L 413.10 205.90 L 412.80 209.70 L 412.90 212.50 L 413.30 214.10 L 414.00 215.10 L 414.90 215.60 L 421.40 215.90 L 432.10 215.30 L 435.00 215.60 L 441.10 217.00 L 442.70 217.10 L 444.30 216.40 L 444.90 215.50 L 445.40 212.80 L 445.20 210.20 L 444.60 207.30 L 442.80 201.30 L 442.60 199.30 L 442.80 197.00 L 443.40 194.50 L 445.00 190.90 L 454.00 175.50 L 456.70 168.90 L 457.30 165.50 L 457.40 162.30 L 455.80 151.20 L 453.20 140.70 L 446.80 141.70 L 447.90 155.90 L 448.70 162.30 L 446.20 167.10 L 442.90 171.00 L 442.20 171.40 L 441.20 171.10 L 437.00 169.10 L 435.20 168.90 Z" fill="#ffcb01" fill-rule="nonzero" group-id="6" id="Path" node-id="78" stroke="none" target-height="76.40001" target-width="72.29999" target-x="385.1" target-y="140.7"></path><path d="M 447.00 289.50 L 447.90 290.20 L 448.20 291.00 L 448.30 294.70 L 447.80 296.50 L 446.40 297.20 L 433.30 295.90 L 430.10 294.60 L 429.20 293.40 L 429.30 292.80 L 430.10 292.20 L 432.90 292.30 L 434.80 291.90 L 439.80 288.90 L 442.50 290.10 L 447.00 289.50 Z" fill="#0b224e" fill-rule="nonzero" group-id="6" id="Path" node-id="79" stroke="none" target-height="8.300018" target-width="19.099976" target-x="429.2" target-y="288.9"></path><path d="M 425.10 280.90 L 426.20 281.50 L 426.70 282.50 L 427.40 286.40 L 427.30 288.10 L 426.80 288.60 L 425.90 289.00 L 411.10 289.00 L 408.30 287.90 L 406.80 286.60 L 407.10 285.60 L 407.60 285.40 L 410.60 285.30 L 412.50 284.80 L 417.40 281.50 L 420.00 282.10 L 421.40 282.10 L 425.10 280.90 Z" fill="#0b224e" fill-rule="nonzero" group-id="6" id="Path" node-id="80" stroke="none" target-height="8.100006" target-width="20.600006" target-x="406.8" target-y="280.9"></path></g><g node-id="152"><path d="M 229.10 217.70 L 232.00 218.00 L 234.10 219.50 L 234.60 220.50 L 235.10 224.20 L 236.40 227.20 L 236.30 227.60 L 235.00 228.60 L 235.30 232.70 L 231.10 233.30 L 230.00 233.70 L 229.60 234.40 L 229.90 236.60 L 230.80 239.70 L 220.00 238.80 L 219.60 227.70 L 219.60 223.20 L 220.00 220.80 L 220.90 219.90 L 222.50 219.10 L 229.10 217.70 Z" fill="#f1b282" fill-rule="nonzero" group-id="7" id="Path" node-id="82" stroke="none" target-height="22" target-width="16.799988" target-x="219.6" target-y="217.7"></path><path d="M 209.40 366.20 L 208.50 372.50 L 208.80 375.60 L 209.40 376.50 L 213.80 376.90 L 214.30 376.80 L 214.60 375.60 L 216.40 376.90 L 217.90 377.50 L 227.60 377.80 L 228.90 377.20 L 229.10 376.40 L 228.90 375.60 L 227.20 374.40 L 222.90 372.80 L 220.50 371.40 L 218.90 369.60 L 217.00 366.90 L 209.40 366.20 Z" fill="#0b224e" fill-rule="evenodd" group-id="7" id="Path" node-id="83" stroke="none" target-height="11.599976" target-width="20.600006" target-x="208.5" target-y="366.2"></path><path d="M 232.60 368.50 L 232.30 374.90 L 232.90 378.00 L 233.50 378.80 L 238.00 378.80 L 238.50 378.60 L 238.70 377.40 L 240.60 378.60 L 242.20 379.00 L 253.40 379.00 L 254.30 378.70 L 254.80 377.50 L 254.50 376.70 L 253.50 376.00 L 247.00 373.90 L 244.20 372.60 L 242.40 371.00 L 240.30 368.50 L 232.60 368.50 Z" fill="#0b224e" fill-rule="evenodd" group-id="7" id="Path" node-id="84" stroke="none" target-height="10.5" target-width="22.5" target-x="232.3" target-y="368.5"></path><path d="M 270.70 267.30 L 269.90 269.00 L 266.60 271.80 L 263.10 274.20 L 259.50 276.30 L 253.80 278.80 L 248.20 280.70 L 242.70 282.00 L 233.40 283.50 L 227.50 283.80 L 227.50 249.90 L 232.90 249.90 L 237.10 249.60 L 241.60 249.00 L 250.50 246.70 L 258.20 243.40 L 261.90 241.30 L 265.70 238.70 L 269.40 235.60 L 270.20 235.50 L 270.70 236.20 L 270.70 267.30 Z" fill="#1b90fb" fill-rule="nonzero" group-id="7" id="Path" node-id="85" stroke="none" target-height="48.299988" target-width="43.200012" target-x="227.5" target-y="235.5"></path><path d="M 262.30 255.10 L 265.20 251.70 L 267.00 246.80 L 270.10 244.90 L 271.30 244.50 L 272.30 245.90 L 273.00 248.80 L 273.10 252.20 L 272.70 253.50 L 271.70 255.20 L 270.40 256.00 L 268.00 256.70 L 265.70 258.90 L 264.90 260.20 L 262.30 255.10 Z" fill="#f1b282" fill-rule="nonzero" group-id="7" id="Path" node-id="86" stroke="none" target-height="15.700012" target-width="10.800018" target-x="262.3" target-y="244.5"></path><path d="M 232.10 245.10 L 231.80 241.20 L 231.30 240.10 L 230.70 239.60 L 224.90 238.10 L 221.60 237.60 L 220.30 237.80 L 219.60 238.20 L 218.80 240.50 L 218.40 244.20 L 232.10 245.10 Z" fill="#1eaf69" fill-rule="nonzero" group-id="7" id="Path" node-id="87" stroke="none" target-height="7.5" target-width="13.700012" target-x="218.4" target-y="237.6"></path><path d="M 237.60 217.40 L 237.40 216.50 L 236.70 215.70 L 235.40 214.90 L 233.10 214.20 L 230.10 213.80 L 226.90 213.80 L 223.70 214.40 L 221.70 215.00 L 218.40 217.10 L 217.10 218.50 L 216.30 220.20 L 216.00 222.30 L 216.30 228.20 L 217.40 232.40 L 218.20 233.70 L 218.90 234.00 L 220.10 233.70 L 220.80 232.90 L 221.60 228.20 L 222.00 227.30 L 222.60 226.90 L 223.20 227.10 L 223.60 227.90 L 224.70 233.80 L 226.10 236.40 L 227.70 237.30 L 231.50 236.80 L 233.30 236.20 L 235.50 234.40 L 235.90 233.50 L 235.70 231.60 L 234.30 230.00 L 233.20 229.60 L 227.40 229.50 L 226.20 228.40 L 225.90 226.80 L 226.40 225.40 L 227.40 224.00 L 228.80 222.90 L 230.70 222.10 L 236.40 220.60 L 237.10 220.00 L 237.50 219.10 L 237.60 217.40 Z" fill="#0b224e" fill-rule="nonzero" group-id="7" id="Path" node-id="88" stroke="none" target-height="23.5" target-width="21.600006" target-x="216" target-y="213.8"></path><path d="M 211.90 292.70 L 212.00 303.40 L 212.50 314.40 L 213.70 327.00 L 208.30 367.50 L 209.40 368.30 L 218.60 368.80 L 219.40 368.60 L 219.80 367.90 L 223.50 354.30 L 228.00 335.30 L 229.00 328.40 L 230.00 306.60 L 229.70 297.60 L 228.50 292.20 L 227.10 290.20 L 225.20 289.20 L 220.40 287.70 L 218.00 287.50 L 216.40 287.60 L 213.90 288.60 L 213.00 289.50 L 212.30 290.80 L 211.90 292.70 Z" fill="#0b224e" fill-rule="nonzero" group-id="7" id="Path" node-id="89" stroke="none" target-height="81.29999" target-width="21.699997" target-x="208.3" target-y="287.5"></path><path d="M 217.60 291.80 L 219.20 299.70 L 221.90 310.10 L 225.10 320.70 L 228.00 329.60 L 230.00 334.50 L 231.40 369.60 L 232.70 370.50 L 240.40 371.20 L 241.60 370.80 L 242.10 369.70 L 244.30 332.00 L 242.50 312.50 L 241.10 302.60 L 239.30 294.50 L 238.50 292.20 L 237.20 290.00 L 235.60 289.00 L 230.80 287.70 L 225.40 287.50 L 220.60 288.40 L 218.10 289.90 L 217.60 291.80 Z" fill="#102b5e" fill-rule="nonzero" group-id="7" id="Path" node-id="90" stroke="none" target-height="83.70001" target-width="26.699997" target-x="217.6" target-y="287.5"></path><path d="M 217.50 265.70 L 221.70 262.20 L 223.50 260.30 L 224.60 258.70 L 225.00 257.20 L 225.40 254.80 L 225.20 249.50 L 224.10 244.40 L 222.60 242.00 L 220.70 241.10 L 219.50 241.30 L 218.00 242.10 L 214.50 245.60 L 212.80 247.90 L 210.60 251.70 L 207.10 259.90 L 205.30 267.10 L 205.20 269.40 L 205.50 270.30 L 207.20 272.60 L 211.90 276.20 L 217.90 279.80 L 230.30 286.10 L 232.50 277.10 L 217.50 265.70 Z" fill="#1eaf69" fill-rule="nonzero" group-id="7" id="Path" node-id="91" stroke="none" target-height="45" target-width="27.300003" target-x="205.2" target-y="241.1"></path><path d="M 267.60 258.30 L 263.60 253.00 L 263.10 252.70 L 262.50 252.90 L 254.80 258.70 L 250.20 262.70 L 246.70 256.80 L 242.00 249.80 L 239.40 246.40 L 235.20 242.40 L 232.50 241.20 L 227.30 240.30 L 222.70 240.40 L 218.40 241.50 L 216.80 242.60 L 215.90 243.80 L 215.10 245.50 L 214.60 247.70 L 214.20 251.30 L 213.90 267.70 L 212.80 277.30 L 210.60 289.20 L 210.80 293.40 L 211.30 294.40 L 212.20 295.00 L 213.90 295.50 L 217.30 295.00 L 224.90 292.50 L 229.40 292.50 L 238.00 293.70 L 240.20 293.00 L 241.10 291.20 L 241.00 289.40 L 237.80 274.10 L 237.40 267.40 L 244.30 273.90 L 247.70 276.00 L 249.80 276.30 L 253.10 274.30 L 257.30 270.50 L 267.60 259.30 L 267.60 258.30 Z" fill="#2ccd7f" fill-rule="nonzero" group-id="7" id="Path" node-id="92" stroke="none" target-height="55.199997" target-width="57" target-x="210.6" target-y="240.3"></path><path d="M 238.50 277.40 L 235.50 274.60 L 232.40 270.20 L 231.10 267.40 L 230.30 264.00 L 229.90 259.10 L 230.20 256.10 L 237.40 267.40 L 237.60 272.40 L 238.50 277.40 Z" fill="#1eaf69" fill-rule="nonzero" group-id="7" id="Path" node-id="93" stroke="none" target-height="21.299988" target-width="8.600006" target-x="229.9" target-y="256.1"></path></g><g node-id="153"><path d="M 496.70 47.90 L 496.50 51.30 L 495.90 54.50 L 494.80 57.60 L 493.30 60.40 L 491.60 63.10 L 489.50 65.50 L 487.10 67.50 L 484.50 69.30 L 481.60 70.80 L 478.60 71.80 L 475.40 72.50 L 472.00 72.70 L 468.60 72.50 L 465.40 71.80 L 462.30 70.80 L 459.40 69.30 L 456.80 67.50 L 454.40 65.50 L 452.40 63.10 L 450.60 60.40 L 449.10 57.60 L 448.10 54.50 L 447.40 51.30 L 447.20 47.90 L 447.40 44.50 L 448.10 41.30 L 449.10 38.30 L 450.60 35.40 L 452.40 32.80 L 454.40 30.40 L 456.80 28.30 L 459.40 26.50 L 462.30 25.10 L 465.40 24.00 L 468.60 23.40 L 472.00 23.10 L 475.40 23.40 L 478.60 24.00 L 481.60 25.10 L 484.50 26.50 L 487.10 28.30 L 489.50 30.40 L 491.60 32.80 L 493.30 35.40 L 494.80 38.30 L 495.90 41.30 L 496.50 44.50 L 496.70 47.90 Z" fill="#dbfeed" fill-rule="nonzero" group-id="8" id="Oval" node-id="95" stroke="none" target-height="49.6" target-width="49.5" target-x="447.2" target-y="23.1"></path><path d="M 491.20 47.90 L 490.90 51.40 L 490.00 54.70 L 488.60 57.70 L 486.70 60.40 L 484.40 62.70 L 481.70 64.60 L 478.70 66.00 L 475.50 66.90 L 472.00 67.20 L 468.40 66.90 L 465.20 66.00 L 462.20 64.60 L 459.50 62.70 L 457.20 60.40 L 455.30 57.70 L 453.90 54.70 L 453.00 51.40 L 452.70 47.90 L 453.00 44.40 L 453.90 41.20 L 455.30 38.20 L 457.20 35.50 L 459.50 33.20 L 462.20 31.30 L 465.20 29.90 L 468.40 29.00 L 472.00 28.60 L 475.50 29.00 L 478.70 29.90 L 481.70 31.30 L 484.40 33.20 L 486.70 35.50 L 488.60 38.20 L 490.00 41.20 L 490.90 44.40 L 491.20 47.90 Z" fill="#9aeec5" fill-rule="nonzero" group-id="8" id="Oval" node-id="96" stroke="none" target-height="38.6" target-width="38.5" target-x="452.7" target-y="28.6"></path><path d="M 485.70 47.90 L 485.50 50.40 L 484.90 52.70 L 483.90 54.90 L 482.50 56.80 L 478.90 59.80 L 476.80 60.80 L 474.50 61.50 L 472.00 61.70 L 469.50 61.50 L 467.20 60.80 L 465.00 59.80 L 463.10 58.40 L 460.10 54.90 L 459.10 52.70 L 458.40 50.40 L 458.20 47.90 L 458.40 45.40 L 459.10 43.10 L 460.10 41.00 L 461.40 39.00 L 465.00 36.00 L 467.20 35.00 L 469.50 34.40 L 472.00 34.20 L 474.50 34.40 L 476.80 35.00 L 478.90 36.00 L 482.50 39.00 L 483.90 41.00 L 484.90 43.10 L 485.50 45.40 L 485.70 47.90 Z" fill="#60dfa0" fill-rule="nonzero" group-id="8" id="Oval" node-id="97" stroke="none" target-height="27.5" target-width="27.5" target-x="458.2" target-y="34.2"></path><path d="M 470.50 53.40 L 469.50 53.00 L 465.40 48.10 L 465.10 47.70 L 465.20 46.60 L 466.00 45.90 L 467.00 46.00 L 470.60 50.00 L 478.40 42.50 L 479.40 42.50 L 479.90 42.80 L 480.30 43.80 L 479.90 44.80 L 471.50 53.00 L 470.50 53.40 Z" fill="#ffffff" fill-rule="nonzero" group-id="8" id="Path" node-id="98" stroke="none" target-height="10.900002" target-width="15.199982" target-x="465.1" target-y="42.5"></path></g><g node-id="154"><path d="M 115.50 287.90 L 114.80 287.20 L 113.90 277.60 L 113.50 269.60 L 113.70 263.00 L 114.30 257.60 L 115.30 253.00 L 116.60 249.40 L 118.20 246.70 L 120.00 244.60 L 121.90 243.10 L 125.80 241.80 L 130.60 242.10 L 133.30 242.80 L 137.50 244.80 L 139.60 246.50 L 139.40 247.00 L 139.00 247.30 L 133.00 244.30 L 130.60 243.50 L 126.20 243.20 L 122.70 244.40 L 120.30 246.40 L 119.00 248.00 L 117.10 252.30 L 116.20 255.50 L 115.20 263.00 L 115.10 273.30 L 116.20 287.10 L 116.10 287.60 L 115.50 287.90 Z" fill="#2ccd7f" fill-rule="nonzero" group-id="9" id="Path" node-id="100" stroke="none" target-height="46.09999" target-width="26.100006" target-x="113.5" target-y="241.8"></path><path d="M 100.20 348.90 L 107.30 373.90 L 108.80 375.40 L 110.70 376.20 L 113.90 376.90 L 117.90 377.10 L 122.00 376.90 L 125.10 376.20 L 127.00 375.40 L 128.60 373.90 L 135.70 348.90 L 100.20 348.90 Z" fill="#c3d3f3" fill-rule="nonzero" group-id="9" id="Path" node-id="101" stroke="none" target-height="28.200012" target-width="35.5" target-x="100.2" target-y="348.9"></path><path d="M 135.70 348.70 L 135.40 349.40 L 134.50 349.90 L 130.40 351.20 L 122.60 352.10 L 117.90 352.20 L 113.30 352.10 L 105.50 351.20 L 101.30 349.90 L 100.20 348.90 L 100.40 348.10 L 101.10 347.50 L 105.20 346.20 L 113.10 345.20 L 117.90 345.10 L 122.80 345.20 L 130.70 346.20 L 134.80 347.50 L 135.70 348.70 Z" fill="#dae7ff" fill-rule="nonzero" group-id="9" id="Path" node-id="102" stroke="none" target-height="7.100006" target-width="35.5" target-x="100.2" target-y="345.1"></path><path d="M 116.50 348.60 L 116.50 322.70 L 115.40 296.90 L 114.10 284.00 L 113.00 277.70 L 111.50 271.50 L 109.60 267.30 L 108.00 265.70 L 106.60 265.60 L 104.30 267.20 L 102.40 269.70 L 97.90 278.20 L 97.50 278.50 L 97.00 278.50 L 96.60 278.10 L 99.40 271.70 L 101.10 268.80 L 103.20 266.10 L 104.40 264.90 L 106.10 264.00 L 108.10 264.00 L 109.90 264.90 L 111.90 267.80 L 113.20 270.90 L 114.90 277.30 L 116.90 290.20 L 118.50 309.70 L 119.10 322.70 L 119.40 348.70 L 119.00 349.70 L 117.90 350.20 L 116.90 349.70 L 116.50 348.60 Z" fill="#2ccd7f" fill-rule="nonzero" group-id="9" id="Path" node-id="103" stroke="none" target-height="86.20001" target-width="22.800003" target-x="96.6" target-y="264"></path><path d="M 117.80 325.10 L 117.30 324.90 L 117.10 324.40 L 117.30 315.50 L 117.90 308.60 L 118.80 303.40 L 119.80 299.50 L 121.00 296.80 L 122.20 294.90 L 123.50 293.70 L 124.80 293.00 L 126.60 292.80 L 128.30 293.20 L 129.90 293.90 L 133.60 297.10 L 134.60 298.80 L 134.40 299.30 L 133.80 299.40 L 129.50 295.30 L 126.70 294.20 L 125.30 294.40 L 124.20 295.00 L 122.90 296.30 L 121.90 298.10 L 120.80 301.20 L 119.90 304.80 L 118.70 316.20 L 118.50 324.40 L 118.30 324.90 L 117.80 325.10 Z" fill="#2ccd7f" fill-rule="nonzero" group-id="9" id="Path" node-id="104" stroke="none" target-height="32.30002" target-width="17.500008" target-x="117.1" target-y="292.8"></path><path d="M 114.30 275.40 L 114.50 270.20 L 113.40 263.50 L 111.20 256.80 L 109.60 253.50 L 107.30 249.90 L 104.50 246.10 L 108.20 255.60 L 111.40 265.00 L 114.30 275.40 Z" fill="#2ccd7f" fill-rule="nonzero" group-id="9" id="Path" node-id="105" stroke="none" target-height="29.299988" target-width="10" target-x="104.5" target-y="246.1"></path><path d="M 133.90 298.70 L 133.10 296.60 L 132.70 294.50 L 132.80 292.50 L 134.10 288.50 L 135.20 286.70 L 137.30 284.40 L 139.70 282.50 L 143.30 281.10 L 146.60 281.10 L 150.30 282.50 L 155.50 286.00 L 160.90 291.00 L 155.30 290.60 L 148.30 290.50 L 145.30 291.10 L 144.90 291.60 L 145.10 292.00 L 147.20 292.40 L 158.70 291.70 L 161.70 291.90 L 164.00 292.60 L 165.80 293.90 L 168.40 297.20 L 169.20 298.90 L 170.30 303.10 L 155.90 300.20 L 150.30 299.40 L 148.30 299.50 L 147.90 299.80 L 148.30 300.20 L 150.20 300.70 L 166.00 303.20 L 170.30 304.70 L 171.70 306.20 L 172.60 310.40 L 172.80 313.60 L 172.70 314.80 L 159.00 309.50 L 153.70 308.10 L 151.50 308.30 L 151.20 308.70 L 151.30 309.20 L 153.20 310.40 L 165.00 313.40 L 170.50 315.50 L 171.80 316.40 L 172.50 317.40 L 172.80 318.50 L 172.60 320.90 L 170.00 335.20 L 169.90 338.30 L 163.10 339.90 L 160.30 340.20 L 156.10 339.80 L 153.90 338.30 L 151.90 333.80 L 149.20 323.40 L 148.00 321.60 L 147.50 321.40 L 146.90 321.70 L 146.40 323.00 L 146.30 327.10 L 147.10 332.20 L 149.00 337.00 L 150.40 338.90 L 152.00 340.20 L 148.30 340.60 L 143.70 340.10 L 141.60 339.10 L 140.50 338.20 L 139.60 337.00 L 139.10 335.30 L 138.80 329.00 L 139.50 317.00 L 139.10 314.70 L 138.70 314.40 L 138.20 314.40 L 136.80 316.20 L 136.00 318.60 L 135.20 322.00 L 134.90 325.70 L 135.20 329.80 L 135.70 332.60 L 138.00 338.00 L 135.20 338.10 L 133.40 337.80 L 131.70 337.20 L 130.10 336.00 L 128.50 333.60 L 128.10 331.70 L 128.00 328.60 L 128.90 321.60 L 131.00 311.10 L 130.80 310.80 L 130.10 311.10 L 128.60 312.80 L 125.50 317.70 L 123.90 320.70 L 122.70 323.90 L 121.90 327.10 L 121.70 329.80 L 117.10 325.70 L 115.60 323.80 L 114.40 321.90 L 113.80 319.20 L 114.00 318.00 L 115.00 316.30 L 121.80 308.20 L 122.40 307.10 L 122.20 306.60 L 121.60 306.50 L 120.10 307.10 L 116.70 309.40 L 113.40 312.60 L 112.20 314.30 L 111.70 315.70 L 110.80 312.00 L 110.50 309.30 L 110.80 306.40 L 111.60 303.10 L 112.60 301.00 L 114.10 298.80 L 116.20 296.50 L 119.10 294.70 L 123.10 294.10 L 125.40 294.50 L 129.70 296.10 L 133.90 298.70 Z" fill="#45d48f" fill-rule="nonzero" group-id="9" id="Path" node-id="106" stroke="none" target-height="59.5" target-width="62.300003" target-x="110.5" target-y="281.1"></path><path d="M 164.20 271.40 L 166.50 266.30 L 167.00 264.10 L 167.10 260.30 L 166.00 257.70 L 163.90 255.20 L 160.10 252.00 L 157.30 250.50 L 150.40 248.60 L 150.10 248.10 L 150.90 247.50 L 154.20 247.30 L 159.50 248.10 L 161.90 248.90 L 164.10 250.00 L 165.40 251.30 L 164.80 246.20 L 164.20 244.30 L 162.60 241.80 L 160.70 241.10 L 151.80 242.30 L 150.30 242.30 L 149.80 241.90 L 150.00 241.50 L 151.20 240.90 L 160.00 239.40 L 158.70 238.70 L 155.20 237.00 L 150.50 235.40 L 148.00 235.00 L 145.40 235.00 L 143.50 235.40 L 142.00 236.10 L 140.90 237.10 L 139.70 239.00 L 138.80 243.20 L 138.90 246.60 L 136.20 243.00 L 133.50 240.60 L 131.80 239.70 L 129.00 239.60 L 126.60 241.00 L 124.90 243.00 L 123.80 244.90 L 123.10 246.60 L 122.90 250.30 L 124.10 254.40 L 125.20 256.40 L 126.20 254.30 L 128.90 249.90 L 131.20 247.80 L 132.20 247.90 L 131.50 249.80 L 128.30 255.20 L 127.30 257.40 L 126.80 259.60 L 126.90 261.80 L 127.40 263.10 L 128.30 264.50 L 129.70 265.80 L 131.30 260.70 L 133.60 255.90 L 135.80 252.50 L 136.60 251.90 L 137.50 252.10 L 137.60 252.40 L 137.30 253.60 L 132.60 263.60 L 132.00 265.70 L 131.90 267.60 L 132.30 269.10 L 133.80 270.50 L 138.90 273.60 L 139.60 267.40 L 141.10 260.00 L 142.30 257.60 L 142.80 257.40 L 143.70 257.90 L 143.80 259.50 L 141.10 267.10 L 140.40 271.40 L 141.00 273.90 L 141.80 275.00 L 143.70 276.80 L 145.90 278.00 L 154.20 280.90 L 155.50 281.60 L 156.10 282.40 L 160.00 278.80 L 162.30 275.30 L 162.90 272.90 L 162.80 271.80 L 161.80 269.60 L 158.60 266.00 L 152.60 261.50 L 152.50 260.90 L 153.00 260.60 L 154.50 260.60 L 156.20 261.00 L 158.30 262.00 L 160.30 263.50 L 162.20 265.50 L 163.10 267.10 L 164.20 271.40 Z M 150.10 253.20 L 150.50 252.10 L 151.00 251.80 L 153.70 251.90 L 156.10 252.50 L 158.00 253.30 L 159.60 254.60 L 162.20 257.80 L 164.50 261.80 L 163.40 260.20 L 160.70 257.70 L 158.30 256.40 L 150.10 253.20 Z" fill="#7be6b1" fill-rule="nonzero" group-id="9" id="Shape" node-id="107" stroke="none" target-height="47.399994" target-width="44.200005" target-x="122.9" target-y="235"></path><path d="M 71.30 298.90 L 70.90 299.90 L 70.00 300.70 L 60.70 305.80 L 58.00 307.60 L 55.50 309.70 L 53.30 312.10 L 51.70 314.90 L 51.20 318.00 L 52.20 322.20 L 55.00 327.20 L 60.60 334.10 L 62.40 332.50 L 64.10 332.00 L 74.60 330.10 L 81.30 328.00 L 86.30 324.90 L 87.80 323.20 L 88.80 321.30 L 89.40 319.10 L 89.50 315.60 L 89.10 311.80 L 86.20 298.50 L 86.20 296.90 L 86.70 295.80 L 87.50 295.10 L 88.30 295.00 L 89.00 295.40 L 89.60 296.40 L 90.90 301.30 L 91.50 308.20 L 91.40 323.20 L 95.30 321.80 L 100.60 319.00 L 103.30 317.00 L 104.10 315.50 L 104.60 313.70 L 104.60 311.40 L 104.10 307.80 L 103.10 303.80 L 98.40 289.90 L 98.20 287.60 L 99.00 287.00 L 100.50 287.80 L 101.60 289.20 L 104.10 294.50 L 107.30 305.00 L 108.40 312.00 L 110.70 310.50 L 112.40 308.80 L 113.50 307.10 L 114.60 303.10 L 114.60 301.00 L 114.10 297.80 L 113.10 294.60 L 108.50 284.10 L 108.00 282.40 L 108.20 281.60 L 108.70 281.30 L 109.40 281.40 L 110.40 282.00 L 113.30 285.80 L 116.10 291.40 L 118.00 297.30 L 121.40 292.30 L 122.70 289.40 L 123.50 286.10 L 123.70 283.90 L 123.10 279.00 L 122.30 276.50 L 120.90 274.00 L 119.00 271.20 L 117.10 269.40 L 115.30 268.30 L 113.40 267.80 L 109.60 268.20 L 104.90 270.60 L 102.50 272.50 L 97.30 277.90 L 98.20 271.40 L 97.70 265.70 L 96.20 262.00 L 94.90 260.40 L 93.40 259.00 L 91.40 257.90 L 88.80 257.10 L 86.00 256.60 L 80.20 256.70 L 72.00 258.30 L 63.50 261.30 L 69.60 262.90 L 77.00 265.30 L 79.70 266.80 L 80.10 267.70 L 79.00 268.20 L 77.90 268.20 L 67.90 265.30 L 62.00 263.90 L 60.50 264.00 L 59.20 264.40 L 58.00 265.20 L 56.40 266.90 L 55.10 269.20 L 53.20 274.10 L 51.80 280.00 L 54.60 278.00 L 56.60 277.20 L 63.40 275.80 L 67.10 275.60 L 73.70 276.00 L 77.30 277.00 L 78.10 278.00 L 77.40 278.80 L 69.70 279.50 L 66.20 280.20 L 62.70 281.40 L 58.40 283.50 L 52.70 287.60 L 49.50 290.60 L 47.30 293.90 L 46.70 295.80 L 46.30 298.80 L 46.80 305.00 L 47.40 307.80 L 49.40 313.90 L 50.30 310.90 L 51.50 308.20 L 52.90 306.00 L 54.60 304.00 L 58.40 301.00 L 61.40 299.40 L 64.20 298.50 L 67.00 298.00 L 70.40 298.20 L 71.30 298.90 Z M 51.00 297.90 L 53.70 294.00 L 58.10 289.10 L 60.80 286.80 L 64.90 284.60 L 67.10 284.00 L 71.20 283.50 L 73.80 283.60 L 75.80 284.00 L 76.70 284.60 L 77.10 285.50 L 77.00 286.50 L 76.50 286.90 L 74.80 287.40 L 66.80 288.80 L 60.00 291.00 L 54.60 294.20 L 51.00 297.90 Z" fill="#9aeec5" fill-rule="nonzero" group-id="9" id="Shape" node-id="108" stroke="none" target-height="77.5" target-width="77.399994" target-x="46.3" target-y="256.6"></path></g></svg>